<?xml version="1.0" encoding="UTF-8"?><svg id="Layer_2" xmlns="http://www.w3.org/2000/svg" viewBox="0 0 268.59 206.68"><defs><style>.cls-1{opacity:.1;}</style></defs><g id="Layer_1-2"><g class="cls-1"><g><circle cx="134.29" cy="10.48" r="10.48"/><circle cx="134.29" cy="41.43" r="10.48"/><circle cx="134.29" cy="72.39" r="10.48"/><circle cx="134.29" cy="103.34" r="10.48"/><circle cx="134.29" cy="134.29" r="10.48"/><circle cx="134.29" cy="165.25" r="10.48"/><circle cx="134.29" cy="196.2" r="10.48"/></g><g><circle cx="103.34" cy="25.95" r="10.48"/><circle cx="103.34" cy="56.91" r="10.48"/><circle cx="103.34" cy="87.86" r="10.48"/><circle cx="103.34" cy="118.82" r="10.48"/><circle cx="103.34" cy="149.77" r="10.48"/><circle cx="103.34" cy="180.72" r="10.48"/></g><g><circle cx="72.39" cy="41.43" r="10.48"/><circle cx="72.39" cy="72.39" r="10.48"/><circle cx="72.39" cy="103.34" r="10.48"/><circle cx="72.39" cy="134.29" r="10.48"/><circle cx="72.39" cy="165.25" r="10.48"/></g><g><circle cx="41.43" cy="56.91" r="10.48"/><circle cx="41.43" cy="87.86" r="10.48"/><circle cx="41.43" cy="118.82" r="10.48"/><circle cx="41.43" cy="149.77" r="10.48"/></g><g><circle cx="10.48" cy="72.39" r="10.48"/><circle cx="10.48" cy="103.34" r="10.48"/><circle cx="10.48" cy="134.29" r="10.48"/></g><g><circle cx="165.25" cy="25.95" r="10.48"/><circle cx="165.25" cy="56.91" r="10.48"/><circle cx="165.25" cy="87.86" r="10.48"/><circle cx="165.25" cy="118.82" r="10.48"/><circle cx="165.25" cy="149.77" r="10.48"/><circle cx="165.25" cy="180.72" r="10.48"/></g><g><circle cx="196.2" cy="41.43" r="10.48"/><circle cx="196.2" cy="72.39" r="10.48"/><circle cx="196.2" cy="103.34" r="10.48"/><circle cx="196.2" cy="134.29" r="10.48"/><circle cx="196.2" cy="165.25" r="10.48"/></g><g><circle cx="227.16" cy="56.91" r="10.48"/><circle cx="227.16" cy="87.86" r="10.48"/><circle cx="227.16" cy="118.82" r="10.48"/><circle cx="227.16" cy="149.77" r="10.48"/></g><g><circle cx="258.11" cy="72.39" r="10.48"/><circle cx="258.11" cy="103.34" r="10.48"/><circle cx="258.11" cy="134.29" r="10.48"/></g></g></g></svg>