<?xml version="1.0" encoding="UTF-8"?><svg id="Layer_2" xmlns="http://www.w3.org/2000/svg" viewBox="0 0 139.79 200.05"><defs><style>.cls-1{opacity:.1;}</style></defs><g id="Layer_1-2"><g class="cls-1"><path d="M0,0H129.81c5.51,0,9.98,4.47,9.98,9.98v22.81c0,5.51-4.47,9.98-9.98,9.98H0V0H0Z"/><path d="M0,52.43H100.16c5.51,0,9.98,4.47,9.98,9.98v22.81c0,5.51-4.47,9.98-9.98,9.98H0V52.43H0Z"/><path d="M0,104.85H68.98c5.51,0,9.98,4.47,9.98,9.98v22.81c0,5.51-4.47,9.98-9.98,9.98H0v-42.78H0Z"/><path d="M0,157.28H129.81c5.51,0,9.98,4.47,9.98,9.98v22.81c0,5.51-4.47,9.98-9.98,9.98H0v-42.78H0Z"/></g></g></svg>